<svg width="20" height="19" viewBox="0 0 20 19" fill="none" xmlns="http://www.w3.org/2000/svg">
<path d="M10.2861 0.213013C11.5424 0.213013 12.7474 0.689736 13.6358 1.53831C14.5242 2.38688 15.0233 3.5378 15.0233 4.73786C15.0233 5.93793 14.5242 7.08884 13.6358 7.93741C12.7474 8.78599 11.5424 9.26271 10.2861 9.26271C9.02968 9.26271 7.82475 8.78599 6.93635 7.93741C6.04795 7.08884 5.54885 5.93793 5.54885 4.73786C5.54885 3.5378 6.04795 2.38688 6.93635 1.53831C7.82475 0.689736 9.02968 0.213013 10.2861 0.213013ZM10.2861 11.5251C15.5207 11.5251 19.7605 13.55 19.7605 16.05V18.3124H0.811646V16.05C0.811646 13.55 5.05145 11.5251 10.2861 11.5251Z" fill="#E7A860"/>
</svg>
