<svg width="20" height="22" viewBox="0 0 20 22" fill="none" xmlns="http://www.w3.org/2000/svg">
<path d="M4.6178 10.8578H6.72323V12.9694H4.6178V10.8578ZM19.3558 4.523V19.3042C19.3558 19.8642 19.134 20.4013 18.7391 20.7973C18.3443 21.1933 17.8088 21.4158 17.2504 21.4158H2.51238C1.95398 21.4158 1.41846 21.1933 1.02362 20.7973C0.628773 20.4013 0.406952 19.8642 0.406952 19.3042V4.523C0.406952 3.96297 0.628773 3.42587 1.02362 3.02987C1.41846 2.63387 1.95398 2.4114 2.51238 2.4114H3.56509V0.299805H5.67052V2.4114H14.0922V0.299805H16.1976V2.4114H17.2504C17.8088 2.4114 18.3443 2.63387 18.7391 3.02987C19.134 3.42587 19.3558 3.96297 19.3558 4.523ZM2.51238 6.63459H17.2504V4.523H2.51238V6.63459ZM17.2504 19.3042V8.74619H2.51238V19.3042H17.2504ZM13.0395 12.9694V10.8578H15.1449V12.9694H13.0395ZM8.82866 12.9694V10.8578H10.9341V12.9694H8.82866ZM4.6178 15.081H6.72323V17.1926H4.6178V15.081ZM13.0395 17.1926V15.081H15.1449V17.1926H13.0395ZM8.82866 17.1926V15.081H10.9341V17.1926H8.82866Z" fill="#E7A860"/>
</svg>
